<?xml version="1.0" encoding="UTF-8"?>
<svg xmlns="http://www.w3.org/2000/svg" viewBox="0 0 128 128">
    <defs>
        <linearGradient id="buildingGrad" x1="0%" y1="0%" x2="100%" y2="100%">
            <stop offset="0%" style="stop-color:#3B82F6;stop-opacity:1" />
            <stop offset="100%" style="stop-color:#1E40AF;stop-opacity:1" />
        </linearGradient>
        <linearGradient id="craneGrad" x1="0%" y1="0%" x2="100%" y2="100%">
            <stop offset="0%" style="stop-color:#F59E0B;stop-opacity:1" />
            <stop offset="100%" style="stop-color:#D97706;stop-opacity:1" />
        </linearGradient>
    </defs>

    <!-- Background circle -->
    <circle cx="64" cy="64" r="60" fill="url(#buildingGrad)" />

    <!-- Building -->
    <rect x="35" y="50" width="30" height="55" rx="2" fill="white" opacity="0.95"/>
    <rect x="55" y="35" width="25" height="70" rx="2" fill="white" opacity="0.85"/>
    <rect x="73" y="55" width="18" height="50" rx="2" fill="white" opacity="0.75"/>

    <!-- Building windows -->
    <rect x="40" y="56" width="6" height="6" fill="#1E40AF" opacity="0.6"/>
    <rect x="50" y="56" width="6" height="6" fill="#1E40AF" opacity="0.6"/>
    <rect x="40" y="68" width="6" height="6" fill="#1E40AF" opacity="0.6"/>
    <rect x="50" y="68" width="6" height="6" fill="#1E40AF" opacity="0.6"/>
    <rect x="40" y="80" width="6" height="6" fill="#1E40AF" opacity="0.6"/>
    <rect x="50" y="80" width="6" height="6" fill="#1E40AF" opacity="0.6"/>

    <rect x="60" y="42" width="6" height="6" fill="#1E40AF" opacity="0.6"/>
    <rect x="70" y="42" width="6" height="6" fill="#1E40AF" opacity="0.6"/>
    <rect x="60" y="54" width="6" height="6" fill="#1E40AF" opacity="0.6"/>
    <rect x="70" y="54" width="6" height="6" fill="#1E40AF" opacity="0.6"/>
    <rect x="60" y="66" width="6" height="6" fill="#1E40AF" opacity="0.6"/>
    <rect x="70" y="66" width="6" height="6" fill="#1E40AF" opacity="0.6"/>
    <rect x="60" y="78" width="6" height="6" fill="#1E40AF" opacity="0.6"/>
    <rect x="70" y="78" width="6" height="6" fill="#1E40AF" opacity="0.6"/>

    <rect x="77" y="62" width="5" height="5" fill="#1E40AF" opacity="0.6"/>
    <rect x="77" y="72" width="5" height="5" fill="#1E40AF" opacity="0.6"/>
    <rect x="77" y="82" width="5" height="5" fill="#1E40AF" opacity="0.6"/>

    <!-- Crane -->
    <rect x="20" y="25" width="4" height="45" fill="url(#craneGrad)" rx="1"/>
    <rect x="18" y="23" width="35" height="4" fill="url(#craneGrad)" rx="1"/>
    <rect x="48" y="23" width="2" height="15" fill="url(#craneGrad)"/>
    <circle cx="50" cy="38" r="2" fill="#FCD34D"/>

</svg>
